<svg preserveAspectRatio="none" overflow="visible" style="display: block;" width="284" height="281.474" viewBox="0 0 284 281.474" fill="none" xmlns="http://www.w3.org/2000/svg">
<g id="Group 2090054754">
<g id="Subtract">
<mask id="path-1-inside-1_0_24" fill="white">
<path d="M123 37.9707C74.6357 46.8993 38 89.2891 38 140.237C38 191.185 74.6357 233.574 123 242.503V281.474C53.5594 272.188 0 212.719 0 140.737C0 68.7555 53.5593 9.28567 123 0V37.9707Z"/>
</mask>
<path d="M123 37.9707L123.272 39.4458L124.5 39.2191V37.9707H123ZM123 242.503H124.5V241.255L123.272 241.028L123 242.503ZM123 281.474L122.801 282.96L124.5 283.188V281.474H123ZM123 0H124.5V-1.71393L122.801 -1.48677L123 0ZM123 37.9707L122.728 36.4956C73.6649 45.5532 36.5 88.5526 36.5 140.237H38H39.5C39.5 90.0256 75.6064 48.2455 123.272 39.4458L123 37.9707ZM38 140.237H36.5C36.5 191.922 73.665 234.92 122.728 243.978L123 242.503L123.272 241.028C75.6065 232.228 39.5 190.449 39.5 140.237H38ZM123 242.503H121.5V281.474H123H124.5V242.503H123ZM123 281.474L123.199 279.987C54.4932 270.799 1.5 211.957 1.5 140.737H0H-1.5C-1.5 213.481 52.6256 273.576 122.801 282.96L123 281.474ZM0 140.737H1.5C1.5 69.5172 54.4931 10.6742 123.199 1.48677L123 0L122.801 -1.48677C52.6256 7.89718 -1.5 67.9939 -1.5 140.737H0ZM123 0H121.5V37.9707H123H124.5V0H123Z" fill="white" fill-opacity="1" mask="url(#path-1-inside-1_0_24)"/>
</g>
<g id="Subtract_2">
<mask id="path-3-inside-2_0_24" fill="white">
<path d="M161 37.9707C209.364 46.8993 246 89.2891 246 140.237C246 191.185 209.364 233.574 161 242.503V281.474C230.441 272.188 284 212.719 284 140.737C284 68.7555 230.441 9.28567 161 0V37.9707Z"/>
</mask>
<path d="M161 37.9707L160.728 39.4458L159.5 39.2191V37.9707H161ZM161 242.503H159.5V241.255L160.728 241.028L161 242.503ZM161 281.474L161.199 282.96L159.5 283.188V281.474H161ZM161 0H159.5V-1.71393L161.199 -1.48677L161 0ZM161 37.9707L161.272 36.4956C210.335 45.5532 247.5 88.5526 247.5 140.237H246H244.5C244.5 90.0256 208.394 48.2455 160.728 39.4458L161 37.9707ZM246 140.237H247.5C247.5 191.922 210.335 234.92 161.272 243.978L161 242.503L160.728 241.028C208.394 232.228 244.5 190.449 244.5 140.237H246ZM161 242.503H162.5V281.474H161H159.5V242.503H161ZM161 281.474L160.801 279.987C229.507 270.799 282.5 211.957 282.5 140.737H284H285.5C285.5 213.481 231.374 273.576 161.199 282.96L161 281.474ZM284 140.737H282.5C282.5 69.5172 229.507 10.6742 160.801 1.48677L161 0L161.199 -1.48677C231.374 7.89718 285.5 67.9939 285.5 140.737H284ZM161 0H162.5V37.9707H161H159.5V0H161Z" fill="white" fill-opacity="1" mask="url(#path-3-inside-2_0_24)"/>
</g>
<rect id="Rectangle 1430107012" x="123.75" y="38.4873" width="36.5" height="81.5" stroke="white" stroke-opacity="1" stroke-width="1.5"/>
<rect id="Rectangle 1430107013" x="123.75" y="160.487" width="36.5" height="81.5" stroke="white" stroke-opacity="1" stroke-width="1.5"/>
</g>
</svg>
